<mxfile host="app.diagrams.net" modified="2023-10-16T01:30:58.823Z" agent="Mozilla/5.0 (Windows NT 10.0; Win64; x64) AppleWebKit/537.36 (KHTML, like Gecko) Chrome/118.0.0.0 Safari/537.36" etag="gJ-V_a9XeOvgngTbOrar" version="22.0.4" type="github">
  <diagram name="Página-1" id="mCqcDyPY4Aq2anPlDZxI">
    <mxGraphModel dx="880" dy="470" grid="1" gridSize="10" guides="1" tooltips="1" connect="1" arrows="1" fold="1" page="1" pageScale="1" pageWidth="827" pageHeight="1169" math="0" shadow="0">
      <root>
        <mxCell id="0" />
        <mxCell id="1" parent="0" />
        <mxCell id="notrwnkj8lNbOosdMPbK-1" value="&lt;b style=&quot;font-size: 18px;&quot;&gt;&lt;i style=&quot;font-size: 18px;&quot;&gt;&lt;font style=&quot;font-size: 18px; background-color: rgb(179, 179, 179);&quot;&gt;SOLICITAÇÃO DE SERVIÇO DE MANUTENÇÃO&lt;/font&gt;&lt;/i&gt;&lt;/b&gt;" style="text;html=1;strokeColor=none;fillColor=none;align=center;verticalAlign=middle;whiteSpace=wrap;rounded=0;fontSize=18;" vertex="1" parent="1">
          <mxGeometry x="100" y="70" width="680" height="30" as="geometry" />
        </mxCell>
        <mxCell id="notrwnkj8lNbOosdMPbK-2" value="Condomino" style="shape=umlLifeline;perimeter=lifelinePerimeter;whiteSpace=wrap;html=1;container=1;dropTarget=0;collapsible=0;recursiveResize=0;outlineConnect=0;portConstraint=eastwest;newEdgeStyle={&quot;curved&quot;:0,&quot;rounded&quot;:0};" vertex="1" parent="1">
          <mxGeometry x="80" y="180" width="100" height="430" as="geometry" />
        </mxCell>
        <mxCell id="notrwnkj8lNbOosdMPbK-3" value="" style="html=1;points=[[0,0,0,0,5],[0,1,0,0,-5],[1,0,0,0,5],[1,1,0,0,-5]];perimeter=orthogonalPerimeter;outlineConnect=0;targetShapes=umlLifeline;portConstraint=eastwest;newEdgeStyle={&quot;curved&quot;:0,&quot;rounded&quot;:0};" vertex="1" parent="notrwnkj8lNbOosdMPbK-2">
          <mxGeometry x="45" y="60" width="10" height="350" as="geometry" />
        </mxCell>
        <mxCell id="notrwnkj8lNbOosdMPbK-4" value="Sistema" style="shape=umlLifeline;perimeter=lifelinePerimeter;whiteSpace=wrap;html=1;container=1;dropTarget=0;collapsible=0;recursiveResize=0;outlineConnect=0;portConstraint=eastwest;newEdgeStyle={&quot;curved&quot;:0,&quot;rounded&quot;:0};" vertex="1" parent="1">
          <mxGeometry x="250" y="180" width="100" height="430" as="geometry" />
        </mxCell>
        <mxCell id="notrwnkj8lNbOosdMPbK-5" value="" style="html=1;points=[[0,0,0,0,5],[0,1,0,0,-5],[1,0,0,0,5],[1,1,0,0,-5]];perimeter=orthogonalPerimeter;outlineConnect=0;targetShapes=umlLifeline;portConstraint=eastwest;newEdgeStyle={&quot;curved&quot;:0,&quot;rounded&quot;:0};" vertex="1" parent="notrwnkj8lNbOosdMPbK-4">
          <mxGeometry x="45" y="60" width="10" height="80" as="geometry" />
        </mxCell>
        <mxCell id="notrwnkj8lNbOosdMPbK-6" value="" style="html=1;points=[[0,0,0,0,5],[0,1,0,0,-5],[1,0,0,0,5],[1,1,0,0,-5]];perimeter=orthogonalPerimeter;outlineConnect=0;targetShapes=umlLifeline;portConstraint=eastwest;newEdgeStyle={&quot;curved&quot;:0,&quot;rounded&quot;:0};" vertex="1" parent="notrwnkj8lNbOosdMPbK-4">
          <mxGeometry x="45" y="190" width="10" height="100" as="geometry" />
        </mxCell>
        <mxCell id="notrwnkj8lNbOosdMPbK-7" value="" style="html=1;points=[[0,0,0,0,5],[0,1,0,0,-5],[1,0,0,0,5],[1,1,0,0,-5]];perimeter=orthogonalPerimeter;outlineConnect=0;targetShapes=umlLifeline;portConstraint=eastwest;newEdgeStyle={&quot;curved&quot;:0,&quot;rounded&quot;:0};" vertex="1" parent="notrwnkj8lNbOosdMPbK-4">
          <mxGeometry x="45" y="320" width="10" height="40" as="geometry" />
        </mxCell>
        <mxCell id="notrwnkj8lNbOosdMPbK-8" value="" style="html=1;points=[[0,0,0,0,5],[0,1,0,0,-5],[1,0,0,0,5],[1,1,0,0,-5]];perimeter=orthogonalPerimeter;outlineConnect=0;targetShapes=umlLifeline;portConstraint=eastwest;newEdgeStyle={&quot;curved&quot;:0,&quot;rounded&quot;:0};" vertex="1" parent="notrwnkj8lNbOosdMPbK-4">
          <mxGeometry x="40" y="210" width="20" height="40" as="geometry" />
        </mxCell>
        <mxCell id="notrwnkj8lNbOosdMPbK-9" value="Manutencao" style="shape=umlLifeline;perimeter=lifelinePerimeter;whiteSpace=wrap;html=1;container=1;dropTarget=0;collapsible=0;recursiveResize=0;outlineConnect=0;portConstraint=eastwest;newEdgeStyle={&quot;curved&quot;:0,&quot;rounded&quot;:0};" vertex="1" parent="1">
          <mxGeometry x="440" y="180" width="100" height="430" as="geometry" />
        </mxCell>
        <mxCell id="notrwnkj8lNbOosdMPbK-10" value="" style="html=1;points=[[0,0,0,0,5],[0,1,0,0,-5],[1,0,0,0,5],[1,1,0,0,-5]];perimeter=orthogonalPerimeter;outlineConnect=0;targetShapes=umlLifeline;portConstraint=eastwest;newEdgeStyle={&quot;curved&quot;:0,&quot;rounded&quot;:0};" vertex="1" parent="notrwnkj8lNbOosdMPbK-9">
          <mxGeometry x="45" y="140" width="10" height="30" as="geometry" />
        </mxCell>
        <mxCell id="notrwnkj8lNbOosdMPbK-11" value="" style="html=1;points=[[0,0,0,0,5],[0,1,0,0,-5],[1,0,0,0,5],[1,1,0,0,-5]];perimeter=orthogonalPerimeter;outlineConnect=0;targetShapes=umlLifeline;portConstraint=eastwest;newEdgeStyle={&quot;curved&quot;:0,&quot;rounded&quot;:0};" vertex="1" parent="notrwnkj8lNbOosdMPbK-9">
          <mxGeometry x="45" y="240" width="10" height="80" as="geometry" />
        </mxCell>
        <mxCell id="notrwnkj8lNbOosdMPbK-12" value="" style="html=1;points=[[0,0,0,0,5],[0,1,0,0,-5],[1,0,0,0,5],[1,1,0,0,-5]];perimeter=orthogonalPerimeter;outlineConnect=0;targetShapes=umlLifeline;portConstraint=eastwest;newEdgeStyle={&quot;curved&quot;:0,&quot;rounded&quot;:0};" vertex="1" parent="notrwnkj8lNbOosdMPbK-9">
          <mxGeometry x="37.5" y="255" width="25" height="50" as="geometry" />
        </mxCell>
        <mxCell id="notrwnkj8lNbOosdMPbK-13" value="Gerenciador de Tarefas" style="shape=umlLifeline;perimeter=lifelinePerimeter;whiteSpace=wrap;html=1;container=1;dropTarget=0;collapsible=0;recursiveResize=0;outlineConnect=0;portConstraint=eastwest;newEdgeStyle={&quot;curved&quot;:0,&quot;rounded&quot;:0};" vertex="1" parent="1">
          <mxGeometry x="620" y="180" width="100" height="430" as="geometry" />
        </mxCell>
        <mxCell id="notrwnkj8lNbOosdMPbK-14" value="" style="html=1;points=[[0,0,0,0,5],[0,1,0,0,-5],[1,0,0,0,5],[1,1,0,0,-5]];perimeter=orthogonalPerimeter;outlineConnect=0;targetShapes=umlLifeline;portConstraint=eastwest;newEdgeStyle={&quot;curved&quot;:0,&quot;rounded&quot;:0};" vertex="1" parent="notrwnkj8lNbOosdMPbK-13">
          <mxGeometry x="45" y="100" width="10" height="100" as="geometry" />
        </mxCell>
        <mxCell id="notrwnkj8lNbOosdMPbK-15" value="Banco de Dados" style="shape=umlLifeline;perimeter=lifelinePerimeter;whiteSpace=wrap;html=1;container=1;dropTarget=0;collapsible=0;recursiveResize=0;outlineConnect=0;portConstraint=eastwest;newEdgeStyle={&quot;curved&quot;:0,&quot;rounded&quot;:0};" vertex="1" parent="1">
          <mxGeometry x="727" y="180" width="100" height="430" as="geometry" />
        </mxCell>
        <mxCell id="notrwnkj8lNbOosdMPbK-16" value="" style="html=1;points=[[0,0,0,0,5],[0,1,0,0,-5],[1,0,0,0,5],[1,1,0,0,-5]];perimeter=orthogonalPerimeter;outlineConnect=0;targetShapes=umlLifeline;portConstraint=eastwest;newEdgeStyle={&quot;curved&quot;:0,&quot;rounded&quot;:0};" vertex="1" parent="notrwnkj8lNbOosdMPbK-15">
          <mxGeometry x="45" y="60" width="10" height="50" as="geometry" />
        </mxCell>
        <mxCell id="notrwnkj8lNbOosdMPbK-17" value="SolicitarServicoDeManutencao" style="html=1;verticalAlign=bottom;endArrow=block;curved=0;rounded=0;exitX=1;exitY=0;exitDx=0;exitDy=5;exitPerimeter=0;entryX=0;entryY=0;entryDx=0;entryDy=5;entryPerimeter=0;" edge="1" parent="1" source="notrwnkj8lNbOosdMPbK-3" target="notrwnkj8lNbOosdMPbK-5">
          <mxGeometry width="80" relative="1" as="geometry">
            <mxPoint x="180" y="250" as="sourcePoint" />
            <mxPoint x="240" y="250" as="targetPoint" />
          </mxGeometry>
        </mxCell>
        <mxCell id="notrwnkj8lNbOosdMPbK-18" value="RegistrarSolicitacao" style="html=1;verticalAlign=bottom;endArrow=block;curved=0;rounded=0;exitX=1;exitY=0;exitDx=0;exitDy=5;exitPerimeter=0;entryX=0;entryY=0;entryDx=0;entryDy=5;entryPerimeter=0;" edge="1" parent="1" source="notrwnkj8lNbOosdMPbK-5" target="notrwnkj8lNbOosdMPbK-16">
          <mxGeometry width="80" relative="1" as="geometry">
            <mxPoint x="327" y="260" as="sourcePoint" />
            <mxPoint x="727" y="260" as="targetPoint" />
          </mxGeometry>
        </mxCell>
        <mxCell id="notrwnkj8lNbOosdMPbK-19" value="SalvarSolicitacao" style="html=1;verticalAlign=bottom;endArrow=block;curved=0;rounded=0;exitX=-0.2;exitY=0.58;exitDx=0;exitDy=0;exitPerimeter=0;entryX=0.52;entryY=0.212;entryDx=0;entryDy=0;entryPerimeter=0;" edge="1" parent="1" source="notrwnkj8lNbOosdMPbK-16" target="notrwnkj8lNbOosdMPbK-4">
          <mxGeometry width="80" relative="1" as="geometry">
            <mxPoint x="720" y="400" as="sourcePoint" />
            <mxPoint x="360" y="400" as="targetPoint" />
          </mxGeometry>
        </mxCell>
        <mxCell id="notrwnkj8lNbOosdMPbK-20" value="ConfirmacaoDoRegistro" style="html=1;verticalAlign=bottom;endArrow=block;curved=0;rounded=0;entryX=0;entryY=0;entryDx=0;entryDy=5;entryPerimeter=0;exitX=1;exitY=0.613;exitDx=0;exitDy=0;exitPerimeter=0;" edge="1" parent="1" source="notrwnkj8lNbOosdMPbK-5" target="notrwnkj8lNbOosdMPbK-14">
          <mxGeometry x="-0.0015" y="-18" width="80" relative="1" as="geometry">
            <mxPoint x="360" y="300" as="sourcePoint" />
            <mxPoint x="410" y="450" as="targetPoint" />
            <mxPoint as="offset" />
          </mxGeometry>
        </mxCell>
        <mxCell id="notrwnkj8lNbOosdMPbK-21" value="CriarTarefaDeManutencao" style="html=1;verticalAlign=bottom;endArrow=block;curved=0;rounded=0;exitX=0.1;exitY=0.4;exitDx=0;exitDy=0;exitPerimeter=0;entryX=1.3;entryY=-0.012;entryDx=0;entryDy=0;entryPerimeter=0;" edge="1" parent="1" source="notrwnkj8lNbOosdMPbK-14" target="notrwnkj8lNbOosdMPbK-10">
          <mxGeometry width="80" relative="1" as="geometry">
            <mxPoint x="400" y="360" as="sourcePoint" />
            <mxPoint x="360" y="400" as="targetPoint" />
          </mxGeometry>
        </mxCell>
        <mxCell id="notrwnkj8lNbOosdMPbK-22" value="ConfirmacaoDaCriacaoDaTarefa" style="html=1;verticalAlign=bottom;endArrow=block;curved=0;rounded=0;entryX=0;entryY=0.63;entryDx=0;entryDy=0;entryPerimeter=0;exitX=1;exitY=1;exitDx=0;exitDy=-5;exitPerimeter=0;" edge="1" parent="1" source="notrwnkj8lNbOosdMPbK-10" target="notrwnkj8lNbOosdMPbK-14">
          <mxGeometry x="-0.1692" y="-26" width="80" relative="1" as="geometry">
            <mxPoint x="520" y="350" as="sourcePoint" />
            <mxPoint x="500" y="400" as="targetPoint" />
            <mxPoint as="offset" />
          </mxGeometry>
        </mxCell>
        <mxCell id="notrwnkj8lNbOosdMPbK-23" value="NotificacaoPorEmail" style="html=1;verticalAlign=bottom;endArrow=block;curved=0;rounded=0;exitX=0;exitY=1;exitDx=0;exitDy=-5;exitPerimeter=0;entryX=1;entryY=0;entryDx=0;entryDy=5;entryPerimeter=0;" edge="1" parent="1" source="notrwnkj8lNbOosdMPbK-14" target="notrwnkj8lNbOosdMPbK-8">
          <mxGeometry x="0.0227" y="15" width="80" relative="1" as="geometry">
            <mxPoint x="420" y="400" as="sourcePoint" />
            <mxPoint x="360" y="400" as="targetPoint" />
            <mxPoint as="offset" />
          </mxGeometry>
        </mxCell>
        <mxCell id="notrwnkj8lNbOosdMPbK-24" value="EnviarNotificacaoDeManutencao" style="html=1;verticalAlign=bottom;endArrow=block;curved=0;rounded=0;entryX=0;entryY=0;entryDx=0;entryDy=5;entryPerimeter=0;exitX=1;exitY=1;exitDx=0;exitDy=-5;exitPerimeter=0;" edge="1" parent="1" source="notrwnkj8lNbOosdMPbK-8" target="notrwnkj8lNbOosdMPbK-11">
          <mxGeometry width="80" relative="1" as="geometry">
            <mxPoint x="410" y="425" as="sourcePoint" />
            <mxPoint x="420" y="540" as="targetPoint" />
          </mxGeometry>
        </mxCell>
        <mxCell id="notrwnkj8lNbOosdMPbK-25" value="ConfirmacaoPorEmail" style="html=1;verticalAlign=bottom;endArrow=block;curved=0;rounded=0;exitX=0;exitY=0;exitDx=0;exitDy=5;exitPerimeter=0;entryX=1;entryY=0.71;entryDx=0;entryDy=0;entryPerimeter=0;" edge="1" parent="1" source="notrwnkj8lNbOosdMPbK-12" target="notrwnkj8lNbOosdMPbK-6">
          <mxGeometry x="0.0526" y="20" width="80" relative="1" as="geometry">
            <mxPoint x="440" y="440" as="sourcePoint" />
            <mxPoint x="340" y="440" as="targetPoint" />
            <mxPoint as="offset" />
          </mxGeometry>
        </mxCell>
        <mxCell id="notrwnkj8lNbOosdMPbK-26" value="ConfirmacaoDaNotificacao" style="html=1;verticalAlign=bottom;endArrow=block;curved=0;rounded=0;exitX=1;exitY=1;exitDx=0;exitDy=-5;exitPerimeter=0;" edge="1" parent="1" source="notrwnkj8lNbOosdMPbK-6" target="notrwnkj8lNbOosdMPbK-12">
          <mxGeometry x="-0.0154" y="-24" width="80" relative="1" as="geometry">
            <mxPoint x="334" y="570" as="sourcePoint" />
            <mxPoint x="430" y="460" as="targetPoint" />
            <mxPoint as="offset" />
          </mxGeometry>
        </mxCell>
        <mxCell id="notrwnkj8lNbOosdMPbK-27" value="ConfirmarSolicitacaodeManutencao" style="html=1;verticalAlign=bottom;endArrow=block;curved=0;rounded=0;entryX=1.1;entryY=-0.025;entryDx=0;entryDy=0;entryPerimeter=0;exitX=-0.2;exitY=1.025;exitDx=0;exitDy=0;exitPerimeter=0;" edge="1" parent="1" source="notrwnkj8lNbOosdMPbK-11" target="notrwnkj8lNbOosdMPbK-7">
          <mxGeometry x="-0.6473" y="19" width="80" relative="1" as="geometry">
            <mxPoint x="510" y="530" as="sourcePoint" />
            <mxPoint x="590" y="530" as="targetPoint" />
            <mxPoint as="offset" />
          </mxGeometry>
        </mxCell>
        <mxCell id="notrwnkj8lNbOosdMPbK-28" value="ExibirConfirmacaoDaSolicitacao" style="html=1;verticalAlign=bottom;endArrow=block;curved=0;rounded=0;entryX=0.8;entryY=0.82;entryDx=0;entryDy=0;entryPerimeter=0;exitX=0;exitY=0.65;exitDx=0;exitDy=0;exitPerimeter=0;" edge="1" parent="1" source="notrwnkj8lNbOosdMPbK-7" target="notrwnkj8lNbOosdMPbK-3">
          <mxGeometry width="80" relative="1" as="geometry">
            <mxPoint x="350" y="580" as="sourcePoint" />
            <mxPoint x="430" y="580" as="targetPoint" />
          </mxGeometry>
        </mxCell>
      </root>
    </mxGraphModel>
  </diagram>
</mxfile>
